<svg aria-hidden="true" style="position: absolute; width: 0; height: 0; overflow: hidden;" version="1.1" xmlns="http://www.w3.org/2000/svg" xmlns:xlink="http://www.w3.org/1999/xlink">
<defs>
<symbol id="logo" viewBox="0 0 12 20">
<path fill="#d8602b" style="fill: var(--color1, #d8602b)" d="M5.727 0.086c-0.033 0.055-0.483 3.116-1.020 6.813-0.757 5.2-1.009 6.703-1.119 6.66-0.318-0.121-2.644-1.854-2.6-1.931 0.033-0.044 0.527-0.329 1.097-0.647 0.79-0.417 1.042-0.614 1.042-0.779 0-0.121-0.592-1.953-1.317-4.070s-1.317-3.873-1.317-3.895c0-0.022-0.11-0.033-0.241-0.011l-0.252 0.033v13.714l1.777 0.033 1.777 0.022 1.119 1.876c0.779 1.295 1.174 1.854 1.295 1.832 0.099-0.022 0.68-0.845 1.295-1.843l1.119-1.81 3.577-0.11 0.033-6.835c0.022-6.133 0.011-6.835-0.154-6.901-0.088-0.033-0.219-0.011-0.274 0.044-0.121 0.121-2.732 7.757-2.732 7.976 0 0.077 0.516 0.428 1.152 0.768l1.152 0.636-1.382 0.987c-0.757 0.538-1.404 0.954-1.437 0.922s-0.494-2.984-1.031-6.561c-0.527-3.577-0.998-6.616-1.031-6.747-0.055-0.241-0.417-0.351-0.527-0.176zM6.835 8.424c0.439 3.072 0.801 5.606 0.79 5.65 0 0.099-1.503 1.185-1.646 1.185-0.132 0-1.646-1.086-1.657-1.185-0.011-0.208 1.613-11.213 1.657-11.213 0.033 0 0.417 2.501 0.856 5.562zM2.15 10.213c-0.154 0.099-0.571 0.329-0.911 0.527l-0.636 0.351 0.011-3.204 0.011-3.215 0.9 2.688 0.911 2.688-0.285 0.165zM11.333 9.488l-0.033 1.569-0.889-0.494-0.889-0.505 0.889-2.666 0.889-2.677 0.033 1.602c0.011 0.878 0.011 2.304 0 3.171zM2.227 13.438c0.735 0.527 1.338 1.020 1.338 1.097 0 0.088-0.033 0.307-0.066 0.494l-0.066 0.34h-2.831v-1.547c0-1.229 0.033-1.525 0.143-1.448 0.066 0.055 0.735 0.538 1.481 1.064zM11.355 13.833v1.536h-2.842l-0.077-0.384c-0.033-0.208-0.044-0.45-0.011-0.538 0.044-0.11 2.754-2.117 2.907-2.15 0.011 0 0.022 0.691 0.022 1.536zM4.63 15.15l0.285 0.219h-0.406c-0.318 0-0.395-0.044-0.395-0.219 0-0.121 0.055-0.219 0.121-0.219s0.241 0.099 0.395 0.219zM7.844 15.15c0 0.176-0.077 0.219-0.395 0.219h-0.395l0.252-0.219c0.34-0.274 0.538-0.274 0.538 0zM5.65 17.146v1.119l-0.658-1.075c-0.362-0.592-0.658-1.097-0.658-1.119s0.296-0.044 0.658-0.044h0.658v1.119zM7.34 16.543c-0.165 0.296-0.472 0.801-0.669 1.13l-0.362 0.603v-2.249h1.338l-0.307 0.516z"></path>
</symbol>
<symbol id="close" viewBox="0 0 20 20">
<path d="M10 8.586l-7.071-7.071-1.414 1.414 7.071 7.071-7.071 7.071 1.414 1.414 7.071-7.071 7.071 7.071 1.414-1.414-7.071-7.071 7.071-7.071-1.414-1.414-7.071 7.071z"></path>
</symbol>
<symbol id="menu" viewBox="0 0 20 20">
<path d="M0 3h20v2h-20v-2zM0 9h20v2h-20v-2zM0 15h20v2h-20v-2z"></path>
</symbol>
<symbol id="filter" viewBox="0 0 20 20">
<path d="M12 12l8-8v-4h-20v4l8 8v8l4-4v-4z"></path>
</symbol>
</defs>
</svg>
